<?xml version="1.0" encoding="UTF-8"?> <svg xmlns="http://www.w3.org/2000/svg" width="229" height="33" viewBox="0 0 229 33" fill="none"><path d="M0 16.5C0 4.125 4.125 0 16.5 0C28.875 0 33 4.125 33 16.5C33 28.875 28.875 33 16.5 33C4.125 33 0 28.875 0 16.5Z" fill="#FF6A34"></path><path d="M14.6189 7.93388C14.9768 7.43335 15.1558 7.18309 15.0558 7.03847C14.9557 6.89384 14.6857 6.9689 14.1457 7.11901C10.9499 8.00734 8.47559 10.6473 7.80516 13.9489C7.77853 14.08 7.76522 14.1456 7.78689 14.2095C7.80856 14.2735 7.86074 14.3188 7.9651 14.4095L8.79722 15.1323L8.80872 15.1431C9.65462 15.9362 10.6533 16.5487 11.7471 16.9877C12.056 17.1117 12.2105 17.1737 12.3206 17.0939C12.4307 17.0141 12.4207 16.837 12.4006 16.4829C12.3837 16.1865 12.3757 15.8903 12.3761 15.5953C12.3805 12.8074 13.1461 9.99327 14.6189 7.93388Z" fill="white"></path><path d="M18.0572 24.372C18.1484 24.4554 18.1939 24.4971 18.2525 24.5126C18.311 24.5281 18.3689 24.5149 18.4848 24.4886C22.1287 23.6595 24.9244 20.5769 25.3522 16.7716C25.3571 16.7279 25.3084 16.699 25.2728 16.7247C22.8269 18.5178 19.5901 19.4926 16.4104 19.5018C16.0551 19.5027 15.6993 19.4917 15.3444 19.4682C14.9923 19.4449 14.8163 19.4332 14.736 19.5437C14.6558 19.6541 14.7166 19.8102 14.8383 20.1223C15.3408 21.4115 16.0811 22.565 17.0679 23.4669L18.0572 24.372Z" fill="white"></path><g opacity="0.4"><path d="M7.69328 16.3723C7.67454 16.3561 7.64566 16.3708 7.64742 16.3956C7.92807 20.3731 10.7877 23.6327 14.5518 24.4878C15.097 24.6117 15.3696 24.6736 15.4623 24.5228C15.5551 24.3719 15.3628 24.1346 14.978 23.66C13.9642 22.4094 13.2679 20.9254 12.8525 19.3582C12.8146 19.2149 12.7956 19.1434 12.7491 19.0963C12.7027 19.0492 12.6317 19.0296 12.4897 18.9904C10.7134 18.5002 9.05469 17.6448 7.69328 16.3723Z" fill="white"></path><path d="M25.1002 14.7994C25.2181 14.7145 25.277 14.672 25.3042 14.6068C25.3313 14.5415 25.3202 14.4721 25.2983 14.3331C24.7029 10.5646 21.7735 7.57969 18.0491 6.92826C17.9303 6.90748 17.8709 6.89709 17.8125 6.91618C17.7542 6.93527 17.7106 6.98043 17.6237 7.07075L16.7217 8.00687L16.7158 8.01279C15.0357 9.68724 14.0353 12.5713 14.0306 15.5966C14.0297 16.1691 14.0645 16.74 14.1354 17.3021C14.157 17.4727 14.1677 17.5579 14.2269 17.618C14.2861 17.6781 14.3707 17.6895 14.54 17.7126C15.1519 17.7958 15.7764 17.8361 16.4058 17.8343C19.2797 17.826 22.1689 16.939 24.3018 15.3744L24.3077 15.3701L25.1002 14.7994Z" fill="white"></path></g><path d="M56.36 25.682H51.96C51.872 24.978 51.718 24.208 51.498 23.328L49.826 16.86C49.606 16.002 49.43 14.99 49.21 13.538C49.078 14.44 48.814 15.826 48.55 16.86L46.922 23.35C46.636 24.45 46.504 25.088 46.438 25.682H42.06C41.95 25.044 41.84 24.582 41.51 23.306L37.99 10.106C37.682 8.984 37.374 7.972 37.154 7.378H42.17C42.192 8.17 42.302 8.874 42.478 9.798L43.886 16.486C43.952 16.816 44.106 17.85 44.37 19.588C44.7 17.74 44.854 16.948 44.986 16.486L46.746 9.666C47.01 8.676 47.142 7.994 47.23 7.378H51.146C51.234 7.95 51.366 8.566 51.652 9.6L53.434 16.376C53.61 17.08 53.764 17.806 54.05 19.588C54.094 19.17 54.094 19.17 54.226 18.246C54.292 17.762 54.446 16.706 54.534 16.354L55.92 9.798C56.14 8.786 56.228 8.148 56.25 7.378H61.244C61.024 7.972 60.716 9.006 60.43 10.106L56.91 23.284C56.624 24.318 56.426 25.154 56.36 25.682ZM67.5217 25.682H62.7917C62.9237 24.714 62.9677 23.724 62.9677 22.426V10.524C62.9677 9.336 62.9237 8.346 62.7917 7.312C63.8257 7.356 64.6177 7.378 66.0257 7.378H70.8437C75.1997 7.378 77.5977 9.468 77.5977 13.296C77.5977 17.212 75.0897 19.544 70.8217 19.544H67.3457V22.36C67.3457 23.658 67.4117 24.736 67.5217 25.682ZM67.3457 15.804H70.6237C72.1637 15.804 73.0657 14.946 73.0657 13.428C73.0657 11.91 72.2077 11.118 70.6237 11.118H67.3457V15.804ZM79.197 20.138L82.365 19.808C82.453 20.798 82.585 21.238 82.981 21.744C83.619 22.58 84.763 23.042 86.193 23.042C88.393 23.042 89.713 22.052 89.713 20.402C89.713 19.5 89.295 18.752 88.613 18.378C87.953 18.026 87.821 18.004 84.785 17.3C83.135 16.926 82.255 16.574 81.463 15.958C80.341 15.078 79.769 13.868 79.769 12.394C79.769 9.336 82.233 7.356 86.017 7.356C88.525 7.356 90.417 8.126 91.495 9.578C92.045 10.304 92.309 10.964 92.573 12.13L89.427 12.504C89.295 11.756 89.141 11.382 88.767 10.942C88.195 10.26 87.227 9.886 86.017 9.886C84.103 9.886 82.805 10.854 82.805 12.284C82.805 13.208 83.289 13.846 84.301 14.286C84.785 14.484 84.961 14.528 87.403 15.078C89.141 15.452 90.197 15.87 90.989 16.42C92.243 17.344 92.815 18.554 92.815 20.204C92.815 21.766 92.331 23.042 91.429 23.944C90.263 25.066 88.525 25.616 86.171 25.616C84.367 25.616 82.607 25.176 81.551 24.472C80.671 23.878 80.033 23.042 79.615 21.964C79.417 21.458 79.329 21.04 79.197 20.138Z" fill="#272529"></path><path d="M104.186 12.636H107.354C107.2 13.582 107.178 14.264 107.178 15.496V22.404C107.178 23.614 107.222 24.362 107.354 25.264H104.362V24.098C104.362 23.768 104.362 23.702 104.384 23.152C103.174 24.868 101.964 25.506 99.8736 25.506C98.7516 25.506 97.9596 25.308 97.2336 24.868C96.0236 24.098 95.4516 22.866 95.4516 21.062V15.496C95.4516 14.286 95.3856 13.45 95.2756 12.636H98.4656C98.3336 13.626 98.3116 14.374 98.3116 15.496V20.38C98.3116 21.656 98.6416 22.47 99.3236 22.888C99.6536 23.064 100.116 23.196 100.534 23.196C102.118 23.196 103.372 22.118 104.362 19.94V15.496C104.362 14.418 104.296 13.582 104.186 12.636ZM113.026 25.264H110.1C110.21 24.296 110.254 23.592 110.254 22.294V10.7C110.254 9.578 110.21 8.808 110.1 7.752H113.202C113.092 8.676 113.048 9.402 113.048 10.722V12.922C113.048 13.274 113.026 13.824 113.004 14.572C114.148 13.032 115.512 12.35 117.536 12.35C121.232 12.35 123.41 14.748 123.41 18.84C123.41 20.996 122.794 22.756 121.606 23.988C120.572 25.044 119.164 25.572 117.382 25.572C115.358 25.572 114.104 24.934 113.004 23.394C113.026 23.68 113.026 23.922 113.026 24.186V25.264ZM120.55 18.84C120.55 16.31 119.23 14.66 117.206 14.66C115.974 14.66 114.94 15.078 114.214 15.87C113.554 16.596 113.136 17.784 113.136 18.928C113.136 20.314 113.708 21.7 114.588 22.404C115.226 22.91 116.084 23.218 116.898 23.218C119.12 23.218 120.55 21.502 120.55 18.84ZM125.084 21.678L128.098 21.304C128.472 22.8 129.286 23.394 131.002 23.394C132.63 23.394 133.642 22.756 133.642 21.722C133.642 21.282 133.422 20.864 133.07 20.622C132.652 20.336 132.52 20.314 130.76 19.918C129.022 19.544 128.34 19.324 127.592 18.972C126.338 18.378 125.656 17.322 125.656 16.046C125.656 15.276 125.898 14.55 126.338 14C127.24 12.856 128.736 12.284 130.738 12.284C132.542 12.284 133.972 12.724 134.874 13.56C135.446 14.11 135.754 14.66 136.062 15.738L133.158 16.112C132.916 14.902 132.168 14.374 130.738 14.374C129.374 14.374 128.45 14.99 128.45 15.914C128.45 16.332 128.692 16.706 129.132 16.948C129.616 17.19 130.078 17.322 131.332 17.608C133.576 18.092 134.478 18.4 135.204 18.95C136.062 19.566 136.48 20.468 136.48 21.678C136.48 22.58 136.062 23.548 135.402 24.164C134.39 25.11 132.85 25.594 130.848 25.594C128.582 25.594 126.888 24.912 125.942 23.636C125.546 23.108 125.348 22.668 125.084 21.678ZM150.137 16.222L147.453 16.86C147.211 16.178 147.057 15.87 146.771 15.518C146.243 14.858 145.473 14.506 144.505 14.506C142.349 14.506 141.007 16.2 141.007 18.928C141.007 21.678 142.371 23.372 144.593 23.372C145.693 23.372 146.573 22.932 147.123 22.14C147.321 21.832 147.431 21.59 147.563 21.04L150.291 21.59C149.983 22.47 149.763 22.932 149.367 23.46C148.311 24.912 146.617 25.682 144.527 25.682C140.655 25.682 138.147 23.064 138.147 18.994C138.147 16.926 138.807 15.144 140.017 13.912C141.095 12.812 142.635 12.24 144.439 12.24C146.595 12.24 148.311 13.076 149.367 14.616C149.653 15.056 149.829 15.408 150.137 16.222ZM161.643 12.636L160.873 15.408C159.949 15.144 159.487 15.056 158.915 15.056C157.815 15.056 156.979 15.408 156.363 16.134C155.813 16.772 155.593 17.278 155.461 18.334V22.404C155.461 23.592 155.505 24.23 155.615 25.264H152.469C152.579 24.186 152.623 23.548 152.623 22.404V15.496C152.623 14.154 152.601 13.538 152.469 12.636H155.461V14.704C156.253 13.142 157.617 12.394 159.597 12.394C160.125 12.394 160.653 12.46 161.643 12.636ZM163.253 7.752H166.487V10.546H163.253V7.752ZM163.253 12.636H166.465C166.355 13.45 166.311 14.176 166.311 15.518V22.382C166.311 23.592 166.355 24.34 166.465 25.264H163.253C163.385 24.274 163.429 23.504 163.429 22.404V15.496C163.429 14.286 163.385 13.538 163.253 12.636ZM172.151 12.636V13.714C172.151 13.956 172.151 14.198 172.129 14.484C173.339 12.944 174.637 12.328 176.617 12.328C178.377 12.328 179.785 12.856 180.797 13.868C181.963 15.056 182.535 16.706 182.535 18.928C182.535 22.976 180.313 25.418 176.573 25.418C174.637 25.418 173.185 24.736 172.129 23.306C172.129 23.57 172.129 23.57 172.151 24.01C172.173 24.164 172.173 24.56 172.173 24.956V26.628C172.173 27.926 172.217 28.63 172.327 29.554H169.225C169.335 28.52 169.379 27.772 169.379 26.65V15.584C169.379 14.308 169.335 13.582 169.225 12.636H172.151ZM179.675 18.884C179.675 16.288 178.311 14.682 176.089 14.682C173.911 14.682 172.261 16.486 172.261 18.84C172.261 21.348 173.889 23.108 176.177 23.108C178.333 23.108 179.675 21.48 179.675 18.884ZM186.276 9.248H189.422C189.334 10.018 189.268 10.964 189.268 11.954V12.636H190.192C191.226 12.636 191.71 12.614 192.414 12.504V15.1C191.688 14.99 191.27 14.968 190.258 14.968H189.268V21.788C189.268 22.866 189.664 23.262 190.72 23.262C191.292 23.262 191.644 23.152 192.326 22.778L192.722 25.11C191.776 25.462 191.116 25.572 189.972 25.572C187.442 25.572 186.43 24.67 186.43 22.36V14.968H185.594C184.78 14.968 184.362 14.99 183.636 15.1V12.504C184.274 12.614 184.692 12.636 185.616 12.636H186.43V11.954C186.43 11.008 186.364 10.04 186.276 9.248ZM194.341 7.752H197.575V10.546H194.341V7.752ZM194.341 12.636H197.553C197.443 13.45 197.399 14.176 197.399 15.518V22.382C197.399 23.592 197.443 24.34 197.553 25.264H194.341C194.473 24.274 194.517 23.504 194.517 22.404V15.496C194.517 14.286 194.473 13.538 194.341 12.636ZM206.363 25.682C202.337 25.682 199.785 23.086 199.785 18.972C199.785 14.88 202.337 12.262 206.341 12.262C210.323 12.262 212.853 14.858 212.853 18.928C212.853 22.998 210.279 25.682 206.363 25.682ZM206.341 14.55C204.031 14.55 202.623 16.222 202.623 18.972C202.623 21.678 204.031 23.35 206.319 23.35C208.607 23.35 210.015 21.7 210.015 19.016C210.015 16.178 208.673 14.55 206.341 14.55ZM218.22 25.264H215.052C215.184 24.318 215.228 23.636 215.228 22.404V15.496C215.228 14.286 215.184 13.538 215.052 12.636H218.044V13.802C218.044 14.132 218.044 14.198 218 14.748C219.341 13.032 220.508 12.416 222.488 12.416C224.182 12.416 225.436 12.966 226.228 14.044C226.756 14.77 226.976 15.65 226.976 17.124V22.404C226.976 23.614 227.02 24.45 227.152 25.264H223.962C224.072 24.274 224.116 23.526 224.116 22.404V17.52C224.116 16.596 224.006 16.002 223.742 15.584C223.39 15.012 222.73 14.682 221.894 14.682C220.31 14.682 219.012 15.782 218.044 17.96V22.404C218.044 23.482 218.088 24.318 218.22 25.264Z" fill="#272529"></path></svg> 